<svg xmlns="http://www.w3.org/2000/svg" xmlns:xlink="http://www.w3.org/1999/xlink" width="114" height="114" viewBox="0 0 114 114">
  <defs>
    <radialGradient id="radial-gradient" cx="0.5" cy="0.5" r="0.5" gradientUnits="objectBoundingBox">
      <stop offset="0" stop-color="#94c94d"/>
      <stop offset="1" stop-color="#75b860"/>
    </radialGradient>
    <clipPath id="clip-path">
      <rect id="Rectángulo_20" data-name="Rectángulo 20" width="56.115" height="58.561" fill="none"/>
    </clipPath>
  </defs>
  <g id="Grupo_38" data-name="Grupo 38" transform="translate(-969 -363)">
    <circle id="Elipse_6" data-name="Elipse 6" cx="57" cy="57" r="57" transform="translate(969 363)" fill="url(#radial-gradient)"/>
    <g id="Grupo_14" data-name="Grupo 14" transform="translate(995 392)">
      <g id="Grupo_13" data-name="Grupo 13" clip-path="url(#clip-path)">
        <path id="Trazado_10" data-name="Trazado 10" d="M0,108.69c0-1.829-.012-3.657,0-5.485.012-1.318.4-1.7,1.7-1.717.724-.009,1.45-.045,2.17.005a38.4,38.4,0,0,0,15.914-2.185,2.973,2.973,0,0,1,2.043.159c4.175,1.934,8.312,3.949,12.458,5.945,1.316.634,1.467,1.111.822,2.438-1.477,3.034-1.477,3.034-4.516,1.654-2.943-1.336-5.893-2.659-8.827-4.013-.821-.379-1.6-.526-2.032.434-.441.981.254,1.433,1.053,1.795,3.465,1.565,6.918,3.159,10.385,4.721,2.316,1.043,4.159.39,5.289-1.921a1.735,1.735,0,0,1,1.546-1.072q6.053-.806,12.087-1.745a2.6,2.6,0,0,1,2.642.863c.845.977,1.826,1.835,2.727,2.765.982,1.013.848,1.866-.429,2.38q-11.906,4.787-23.839,9.5a2.6,2.6,0,0,1-1.724-.112c-5.555-2.184-11.088-4.424-16.639-6.62a5.048,5.048,0,0,0-1.76-.343c-3.084-.033-6.169-.011-9.254-.017-1.44,0-1.809-.372-1.817-1.831-.011-1.867,0-3.733,0-5.6" transform="translate(0 -64.755)" fill="#fff"/>
        <path id="Trazado_11" data-name="Trazado 11" d="M70.929,17.294a14.619,14.619,0,0,1-8.967-2.476A13.112,13.112,0,0,1,56.236,4.174a12.645,12.645,0,0,1,.042-2.732A1.791,1.791,0,0,1,57.314.216,13.989,13.989,0,0,1,71.148,6.331c.284.443.543.9.884,1.472.242-.38.437-.679.625-.983A13.3,13.3,0,0,1,84.169.158c.8-.025,1.6-.014,2.4,0a1.17,1.17,0,0,1,1.3,1.156c.412,5.481-1.067,10.166-5.718,13.5a14.748,14.748,0,0,1-8.969,2.475l.029.024a5.606,5.606,0,0,1,.742-1.448c2.008-2.079,4.07-4.1,6.111-6.151a1.207,1.207,0,0,0,.11-1.9c-.608-.592-1.253-.4-1.809.153-1.347,1.343-2.708,2.671-4.022,4.045-.727.76-1.371,1.6-2.069,2.421-.546-.514-.8-.74-1.037-.979-1.8-1.8-3.59-3.617-5.4-5.406-.789-.778-1.806-.789-2.063.037a2.028,2.028,0,0,0,.4,1.682c1.953,2.077,4.021,4.045,6,6.1a5.593,5.593,0,0,1,.74,1.449l.029-.024" transform="translate(-36.677 0)" fill="#fff"/>
        <path id="Trazado_12" data-name="Trazado 12" d="M77.1,49.812v8.4c9.632,1.321,15.311,6.9,17.812,16.086-1.722-1.916-3.792-1.332-5.843-1.023-3.455.521-6.918.99-10.5,1.5-.006-2.32-1.525-3.306-3.351-4.154-4.337-2.014-8.629-4.125-13.023-6.237A19.256,19.256,0,0,1,74.85,58.29V49.812l-.029.024h2.3Z" transform="translate(-40.598 -32.519)" fill="#fff"/>
      </g>
    </g>
  </g>
</svg>
