<svg xmlns="http://www.w3.org/2000/svg" xmlns:xlink="http://www.w3.org/1999/xlink" width="114" height="114" viewBox="0 0 114 114">
  <defs>
    <radialGradient id="radial-gradient" cx="0.5" cy="0.5" r="0.5" gradientUnits="objectBoundingBox">
      <stop offset="0" stop-color="#94c94d"/>
      <stop offset="1" stop-color="#75b860"/>
    </radialGradient>
    <clipPath id="clip-path">
      <rect id="Rectángulo_22" data-name="Rectángulo 22" width="59.134" height="54" fill="none"/>
    </clipPath>
  </defs>
  <g id="Grupo_40" data-name="Grupo 40" transform="translate(-969 -699)">
    <circle id="Elipse_8" data-name="Elipse 8" cx="57" cy="57" r="57" transform="translate(969 699)" fill="url(#radial-gradient)"/>
    <g id="Grupo_18" data-name="Grupo 18" transform="translate(993.491 729)">
      <g id="Grupo_17" data-name="Grupo 17" clip-path="url(#clip-path)">
        <path id="Trazado_21" data-name="Trazado 21" d="M79.612,37.615l-1.694-1.527,3-4.014c-.71-.031-1.114-.062-1.518-.065-1.931-.015-2.283-.466-1.767-2.291.585-2.069,1.147-4.146,1.781-6.2a1.44,1.44,0,0,0-.449-1.713,45.869,45.869,0,0,1-3.338-3.351,3.159,3.159,0,0,1-.7-1.711c-.107-1.183.041-2.388-.053-3.573a2.334,2.334,0,0,1,1.248-2.376c.778-.485,1.493-1.069,2.343-1.687a19.823,19.823,0,0,0-11.11-6.314c.736,1.2,1.335,2.183,1.936,3.162a6.073,6.073,0,0,1-.785,7.131c-1.007,1-2.018,2-3.1,3.079a12.076,12.076,0,0,0,.894,1.343,5.581,5.581,0,0,1,1.235,4.282,1.6,1.6,0,0,1-1.247,1.683c-.692.2-1.364.468-2.019.7a2.96,2.96,0,0,0,1.951,2.782c1.643.678,1.726,1.491.428,2.75-2.963,2.875-1.776,2.655-5.889,1.4a2.483,2.483,0,0,1-2.076-2.358c-.1-1.064-.534-2.1-.6-3.164a4.07,4.07,0,0,0-1.846-3.032,2.241,2.241,0,0,0-1.494-.325,5.242,5.242,0,0,1-4.272-1.669c-2.1-1.835-3.092-3.859-2.679-6.62a10.01,10.01,0,0,0-.1-2.757,16.808,16.808,0,0,0-3.269,7.556,21.118,21.118,0,0,0,.277,8.4l-2.166.623c-3.547-6.826,1.306-19.246,9.5-24.377A22.132,22.132,0,0,1,79.612,37.615" transform="translate(-26.852 0)" fill="#fff"/>
        <path id="Trazado_22" data-name="Trazado 22" d="M0,94.457c0-1.923-.011-3.847,0-5.77C.017,87.5.416,87.1,1.585,87.044a3.62,3.62,0,0,1,.462,0,37.7,37.7,0,0,0,15.4-2.14,3.214,3.214,0,0,1,2.175.142C23.814,86.977,27.957,89,32.112,91c1.41.679,1.574,1.14.871,2.53-1.559,3.081-1.256,3.167-4.575,1.619q-4.44-2.07-8.935-4.018a2.146,2.146,0,0,0-1.608-.053c-.927.471-.642,1.663.5,2.193,2.825,1.305,5.663,2.583,8.5,3.871.839.382,1.669.788,2.522,1.137a3.545,3.545,0,0,0,4.78-1.747,2.478,2.478,0,0,1,2.288-1.512c4-.51,8-1.1,11.988-1.719a2.195,2.195,0,0,1,2.163.7c.942,1.014,1.959,1.958,2.927,2.948,1.077,1.1.905,1.929-.548,2.512-7.88,3.161-15.758,6.328-23.664,9.425a3.285,3.285,0,0,1-2.179-.079c-5.442-2.117-10.846-4.33-16.284-6.458a8.2,8.2,0,0,0-2.672-.509c-2.192-.072-4.387-.011-6.58-.029-1.219-.011-1.586-.381-1.6-1.591-.016-1.923,0-3.846,0-5.77" transform="translate(0 -55.044)" fill="#fff"/>
      </g>
    </g>
  </g>
</svg>
