<svg xmlns="http://www.w3.org/2000/svg" xmlns:xlink="http://www.w3.org/1999/xlink" width="114" height="114" viewBox="0 0 114 114">
  <defs>
    <radialGradient id="radial-gradient" cx="0.5" cy="0.5" r="0.5" gradientUnits="objectBoundingBox">
      <stop offset="0" stop-color="#94c94d"/>
      <stop offset="1" stop-color="#75b860"/>
    </radialGradient>
    <clipPath id="clip-path">
      <rect id="Rectángulo_21" data-name="Rectángulo 21" width="64.33" height="64.5" fill="none"/>
    </clipPath>
  </defs>
  <g id="Grupo_39" data-name="Grupo 39" transform="translate(-969 -531)">
    <circle id="Elipse_7" data-name="Elipse 7" cx="57" cy="57" r="57" transform="translate(969 531)" fill="url(#radial-gradient)"/>
    <g id="Grupo_16" data-name="Grupo 16" transform="translate(993.835 554.75)">
      <g id="Grupo_15" data-name="Grupo 15" clip-path="url(#clip-path)">
        <path id="Trazado_13" data-name="Trazado 13" d="M59.584,80.071A24.117,24.117,0,0,1,70.713,66.246c1.453-.884,1.855-1.543,1.368-2.364s-1.266-.812-2.745.079A29.231,29.231,0,0,0,56.927,78.53a26.744,26.744,0,0,1-.606-2.658c-.926-7.285,2.887-13.846,9.911-17.038a27.53,27.53,0,0,1,12.1-2.257c1.588.031,1.92.411,1.917,1.965a32.051,32.051,0,0,1-3.175,13.81c-3.67,7.719-11.236,9.5-17.519,7.679Z" transform="translate(-34.746 -34.985)" fill="#fff"/>
        <path id="Trazado_14" data-name="Trazado 14" d="M83.77,11.022c-1.991-2.8-3.866-5.362-5.651-7.99a2.348,2.348,0,0,1-.439-1.871C77.9.716,78.815.427,79.438.4c2.216-.089,4.438.009,6.655-.055a2.479,2.479,0,0,1,2.235,1.086c1.142,1.5,2.406,2.9,3.5,4.432a1.694,1.694,0,0,0,2.2.718,17.885,17.885,0,0,1,3.042-.735,1.8,1.8,0,0,1,1.425.413,1.666,1.666,0,0,1,.159,1.475c-1.247,2.645-2.542,5.272-3.944,7.837a2.012,2.012,0,0,1-1.617.795c-3.412-.337-6.816-.773-10.211-1.265a1.827,1.827,0,0,1-1.276-.961,2.024,2.024,0,0,1,.47-1.518,13.549,13.549,0,0,1,1.693-1.6" transform="translate(-47.993 -0.214)" fill="#fff"/>
        <path id="Trazado_15" data-name="Trazado 15" d="M5.072,114.626a20.308,20.308,0,0,1-1.83-1.5c-1.029-1.049-.693-2.223.732-2.454,3.051-.495,6.11-.954,9.181-1.291a1.89,1.89,0,0,1,1.479.99c.96,2.534,1.8,5.116,2.614,7.7.38,1.208-.244,2.115-1.5,1.912-2.423-.389-3.752.7-4.812,2.7a45.913,45.913,0,0,1-2.9,4.388c-.822,1.2-1.392,1.288-2.578.413-1.547-1.141-3.069-2.317-4.62-3.452a1.543,1.543,0,0,1-.4-2.453c1.513-2.2,2.965-4.443,4.638-6.964" transform="translate(0 -67.645)" fill="#fff"/>
        <path id="Trazado_16" data-name="Trazado 16" d="M114.153,135.647a12.874,12.874,0,0,1-1.537,1.737,2.041,2.041,0,0,1-1.523.5,1.8,1.8,0,0,1-.96-1.253c-.5-3.006-.913-6.027-1.336-9.045a1.388,1.388,0,0,1,1.079-1.611c2.532-.851,5.057-1.722,7.6-2.528,1.268-.4,2.155.218,1.972,1.563-.309,2.268.577,3.622,2.548,4.644a44.835,44.835,0,0,1,4.5,2.964c1.241.847,1.35,1.4.494,2.561q-1.706,2.324-3.46,4.613c-.852,1.113-1.339,1.187-2.531.4-2.2-1.447-4.383-2.91-6.846-4.547" transform="translate(-67.273 -76.27)" fill="#fff"/>
        <path id="Trazado_17" data-name="Trazado 17" d="M52.867,0c-.773,3.912,2.535,5.649,3.746,8.52-2.4,1.6-4.8,3.247-7.275,4.782a1.684,1.684,0,0,1-1.571-.187c-1.835-1.7-3.592-3.494-5.334-5.294a1.27,1.27,0,0,1,.242-2.134C45.258,3.919,47.842,2.15,50.49.482A7.642,7.642,0,0,1,52.867,0" transform="translate(-25.948)" fill="#fff"/>
        <path id="Trazado_18" data-name="Trazado 18" d="M151.553,122.9c-2.426-1.632-4.587-3.117-6.784-4.547a1.657,1.657,0,0,1-.9-1.6c.057-1.964.037-3.93.014-5.895a1.475,1.475,0,0,1,1.668-1.707q3.012-.009,6.023,0a1.486,1.486,0,0,1,1.684,1.7c-.018,2.885.159,5.784-.085,8.648-.1,1.194-1.073,2.314-1.618,3.4" transform="translate(-88.972 -67.5)" fill="#fff"/>
        <path id="Trazado_19" data-name="Trazado 19" d="M23.549,151.995c1.667-2.468,3.143-4.593,4.546-6.764a1.747,1.747,0,0,1,1.722-.925c1.922.061,3.848,0,5.772.026,1.288.014,1.718.442,1.735,1.748.026,1.965.029,3.93,0,5.895-.02,1.262-.494,1.7-1.788,1.706-2.844.014-5.7.169-8.526-.073-1.2-.1-2.323-1.057-3.459-1.613" transform="translate(-14.564 -89.243)" fill="#fff"/>
        <path id="Trazado_20" data-name="Trazado 20" d="M59.526,116.828c-.237,1.1-.5,2.188-.7,3.291-.171.929-.649,1.475-1.618,1.293-.907-.17-1.178-.849-1.02-1.7.226-1.22.476-2.436.714-3.641l2.66.8-.032-.039" transform="translate(-34.72 -71.781)" fill="#fff"/>
      </g>
    </g>
  </g>
</svg>
